<svg width="259" height="128" viewBox="0 0 259 128" fill="none" xmlns="http://www.w3.org/2000/svg">
<path d="M72.9922 64C75.1917 64.0043 76.9844 65.7995 76.9844 68V68.9531C76.9844 70.8281 78.5 72.5781 80.2656 73.1406C80.3593 73.1719 80.4532 73.2031 80.5156 73.2344C82.2969 73.8124 84.5469 73.2968 85.6406 71.7812L86.2188 71C86.8281 70.1407 87.7657 69.5625 88.8281 69.3906C89.875 69.2344 90.9375 69.4844 91.7969 70.1094C93.5936 71.4063 93.9843 73.9219 92.6875 75.7031L92.1094 76.5C91.0156 78 91.2031 80.3125 92.3125 81.8125C92.375 81.875 92.4219 81.9532 92.4688 82.0156C93.5625 83.5312 95.7032 84.4219 97.4844 83.8438L98.4063 83.5469C100.5 82.8595 102.75 84.0157 103.438 86.1094C104.125 88.2187 102.969 90.4687 100.875 91.1562L99.9531 91.4531C98.1719 92.0312 96.9062 94 96.9688 95.8594V96.1406C97.0156 98 98.1719 99.9844 99.9531 100.562L100.875 100.859C102.969 101.531 104.125 103.797 103.438 105.891C102.75 107.984 100.5 109.141 98.4063 108.469L97.4688 108.156C95.6875 107.578 93.5625 108.469 92.4688 109.984C92.4063 110.047 92.3594 110.125 92.3125 110.188C91.1875 111.688 91 114 92.0938 115.5L92.6875 116.312C93.9843 118.094 93.578 120.594 91.7969 121.891C90.0156 123.187 87.5156 122.797 86.2188 121.016L85.6406 120.219C84.5469 118.703 82.2969 118.188 80.5313 118.766C80.4532 118.797 80.3593 118.828 80.2656 118.859C78.5 119.422 76.9844 121.172 76.9844 123.047V124C76.9844 126.203 75.1874 128 72.9844 128C70.7812 128 68.9844 126.203 68.9844 124V123.047C68.9844 121.172 67.4843 119.422 65.7031 118.859C65.6407 118.828 65.5312 118.812 65.4531 118.781C63.6875 118.188 61.4375 118.703 60.3438 120.219L59.7656 121.016C58.4688 122.797 55.9687 123.187 54.1875 121.891C52.3906 120.594 52 118.094 53.2969 116.312L53.875 115.5C54.9687 114 54.7812 111.687 53.6719 110.188C53.625 110.125 53.5625 110.047 53.5156 109.984C52.4219 108.469 50.2968 107.578 48.5156 108.156L47.5938 108.453C45.5 109.141 43.2344 107.984 42.5625 105.891C41.875 103.797 43.0156 101.531 45.125 100.844L46.0313 100.562C47.7968 99.9843 49.0781 97.9999 49.0156 96.1406V95.8594C48.9688 94 47.7968 92.0313 46.0156 91.4531L45.125 91.1562C43.0156 90.4688 41.875 88.2188 42.5625 86.1094C43.2344 84.0157 45.5 82.8594 47.5938 83.5469L48.5156 83.8438C50.2968 84.4218 52.4219 83.5312 53.5156 82.0156C53.5781 81.9531 53.625 81.875 53.6563 81.8125C54.7812 80.3125 54.9843 78 53.875 76.5L53.3125 75.7031C52 73.9062 52.4063 71.4062 54.2031 70.1094C55.0469 69.4844 56.125 69.2344 57.1719 69.4062C58.2187 69.5625 59.1563 70.1407 59.7813 71L60.3438 71.7812C61.4375 73.2812 63.6875 73.8125 65.4688 73.2188C65.5312 73.1875 65.6251 73.1719 65.7188 73.1406C67.4843 72.5625 69 70.8125 69 68.9531V68C69 65.7994 70.7926 64.0042 72.9922 64ZM57.1201 98.0264C57.2007 98.8727 57.3588 99.7293 57.6289 100.599C57.3953 99.7654 57.2246 98.9061 57.1201 98.0264Z" fill="white"/>
<g clip-path="url(#clip0_29_2)">
<path d="M15.9958 0C17.0957 0.00198158 17.9919 0.899655 17.9919 2V2.47656C17.9919 3.41398 18.7498 4.28898 19.6326 4.57031C19.6793 4.5859 19.7263 4.6016 19.7576 4.61719C20.6481 4.90623 21.7731 4.64834 22.3201 3.89062L22.6091 3.5C22.9138 3.07038 23.3827 2.7813 23.9138 2.69531C24.4372 2.6172 24.9685 2.74228 25.3982 3.05469C26.2966 3.70312 26.4919 4.96094 25.8435 5.85156L25.5544 6.25C25.0077 6.99996 25.1014 8.15629 25.656 8.90625C25.6872 8.93746 25.7107 8.97658 25.7341 9.00781C26.2809 9.76556 27.3514 10.2108 28.2419 9.92188L28.7029 9.77344C29.7497 9.4297 30.8747 10.0079 31.2185 11.0547C31.5622 12.1094 30.9841 13.2344 29.9372 13.5781L29.4763 13.7266C28.5858 14.0157 27.9529 15.0001 27.9841 15.9297V16.0703C28.0076 16.9999 28.5858 17.9921 29.4763 18.2812L29.9372 18.4297C30.9841 18.7656 31.5622 19.8984 31.2185 20.9453C30.8747 21.9921 29.7497 22.5703 28.7029 22.2344L28.2341 22.0781C27.3435 21.7892 26.2809 22.2344 25.7341 22.9922C25.7029 23.0234 25.6794 23.0625 25.656 23.0938C25.0936 23.8437 24.9999 25 25.5466 25.75L25.8435 26.1562C26.4919 27.0469 26.2888 28.2969 25.3982 28.9453C24.5076 29.5936 23.2575 29.3984 22.6091 28.5078L22.3201 28.1094C21.7731 27.3517 20.6481 27.0938 19.7654 27.3828C19.7264 27.3984 19.6793 27.4141 19.6326 27.4297C18.7498 27.711 17.9919 28.586 17.9919 29.5234V30C17.9919 31.1016 17.0935 32 15.9919 32C14.8905 31.9999 13.9919 31.1015 13.9919 30V29.5234C13.9919 28.5859 13.2419 27.7109 12.3513 27.4297C12.32 27.4141 12.2653 27.4062 12.2263 27.3906C11.3435 27.0939 10.2184 27.3516 9.67162 28.1094L9.38256 28.5078C8.73409 29.3983 7.48408 29.5937 6.59349 28.9453C5.69524 28.2969 5.49989 27.0468 6.14818 26.1562L6.43724 25.75C6.98412 25 6.89037 23.8438 6.33568 23.0938C6.31225 23.0625 6.28096 23.0234 6.25756 22.9922C5.71066 22.2344 4.64813 21.7891 3.75756 22.0781L3.29662 22.2266C2.24981 22.5702 1.11691 21.9921 0.780994 20.9453C0.437321 19.8985 1.00773 18.7657 2.06224 18.4219L2.51537 18.2812C3.39818 17.9922 4.03881 17 4.00756 16.0703V15.9297C3.98412 15 3.39818 14.0156 2.50756 13.7266L2.06224 13.5781C1.00773 13.2343 0.43732 12.1093 0.780994 11.0547C1.11691 10.0079 2.24981 9.42985 3.29662 9.77344L3.75756 9.92188C4.64813 10.2109 5.71066 9.76555 6.25756 9.00781C6.28877 8.9766 6.31224 8.93748 6.32787 8.90625C6.89037 8.15625 6.99193 7 6.43724 6.25L6.15599 5.85156C5.49989 4.95319 5.70305 3.70313 6.60131 3.05469C7.02312 2.74224 7.56232 2.61727 8.08568 2.70312C8.60907 2.78124 9.07787 3.07038 9.39037 3.5L9.67162 3.89062C10.2184 4.64056 11.3435 4.90613 12.2341 4.60938C12.2653 4.59377 12.3123 4.58589 12.3591 4.57031C13.2419 4.28125 13.9997 3.40625 13.9997 2.47656V2C13.9997 0.899826 14.8962 0.00225977 15.9958 0ZM8.05248 16.9365C8.09078 17.3929 8.17584 17.8545 8.32396 18.3242C8.19666 17.8755 8.10461 17.4121 8.05248 16.9365Z" fill="white"/>
</g>
<rect x="24.7341" y="21" width="69.6877" height="8" transform="rotate(55 24.7341 21)" fill="white"/>
<path d="M98.232 19.12H118.488C125.976 19.12 131.448 20.752 134.904 24.016C138.424 27.216 140.184 31.696 140.184 37.456C140.184 39.824 139.832 42 139.128 43.984C138.488 45.968 137.432 47.728 135.96 49.264C134.488 50.8 132.568 52.144 130.2 53.296C127.832 54.384 124.952 55.216 121.56 55.792V58.672H98.232V50.896L110.616 49.168C115.096 48.528 118.424 47.728 120.6 46.768C122.84 45.744 124.344 44.56 125.112 43.216C125.88 41.872 126.264 40.368 126.264 38.704C126.264 35.76 125.464 33.584 123.864 32.176C122.328 30.768 119.8 30.064 116.28 30.064H98.232V19.12ZM94.488 19.12H108.312V82H94.488V19.12ZM144.696 81.616V82H127.416L117.72 67.12C116.504 65.2 115.352 63.664 114.264 62.512C113.24 61.36 112.088 60.528 110.808 60.016C109.528 59.44 107.896 59.088 105.912 58.96C103.928 58.768 101.368 58.672 98.232 58.672V56.464H121.56C122.84 57.104 124.024 57.84 125.112 58.672C126.264 59.44 127.352 60.336 128.376 61.36C129.464 62.32 130.552 63.536 131.64 65.008L144.696 81.616ZM162.865 69.904L165.553 59.056H183.505L186.385 69.904H162.865ZM162.385 82H148.657L166.705 19.12H177.361L176.401 28.912L167.377 63.856H167.569L162.385 82ZM202.225 82H187.729L182.641 64.336L182.833 64.24L173.809 29.104L174.097 19.12H183.985L202.225 82ZM256.01 19.12L258.89 82H246.122L244.202 19.12H256.01ZM224.426 19.12L222.506 82H209.93L212.81 19.12H224.426ZM251.018 19.12L235.274 66.16H233.354L217.322 19.12H226.154L235.082 46.096H234.026L243.05 19.12H251.018Z" fill="white"/>
<defs>
<clipPath id="clip0_29_2">
<rect width="32" height="32" fill="white"/>
</clipPath>
</defs>
</svg>
